<svg width="211pt" height="260pt" viewBox="0.00 0.00 211.00 260.00" xmlns="http://www.w3.org/2000/svg">
    <g id="graph1" class="graph" transform="scale(1 1) rotate(0) translate(4 256)">
        <title>H</title>
        <polygon fill="white" stroke="white" points="-4,5 -4,-256 208,-256 208,5 -4,5"></polygon>
        <!-- html -->
        <g id="node1" class="node">
            <title>html</title>
            <ellipse fill="none" stroke="black" cx="101" cy="-234" rx="28.6156" ry="18"></ellipse>
            <text text-anchor="middle" x="101" y="-229.8" font-family="Times,serif" font-size="14.00">html</text>
        </g>
        <!-- body -->
        <g id="node3" class="node">
            <title>body</title>
            <ellipse fill="none" stroke="black" cx="101" cy="-162" rx="30.0272" ry="18"></ellipse>
            <text text-anchor="middle" x="101" y="-157.8" font-family="Times,serif" font-size="14.00">body</text>
        </g>
        <!-- html&#45;&gt;body -->
        <g id="edge2" class="edge">
            <title>html-&gt;body</title>
            <path fill="none" stroke="black" d="M101,-215.697C101,-207.983 101,-198.712 101,-190.112"></path>
            <polygon fill="black" stroke="black"
                     points="104.5,-190.104 101,-180.104 97.5001,-190.104 104.5,-190.104"></polygon>
        </g>
        <!-- ul -->
        <g id="node5" class="node">
            <title>ul</title>
            <ellipse fill="none" stroke="black" cx="101" cy="-90" rx="27" ry="18"></ellipse>
            <text text-anchor="middle" x="101" y="-85.8" font-family="Times,serif" font-size="14.00">ul</text>
        </g>
        <!-- body&#45;&gt;ul -->
        <g id="edge4" class="edge">
            <title>body-&gt;ul</title>
            <path fill="none" stroke="black" d="M101,-143.697C101,-135.983 101,-126.712 101,-118.112"></path>
            <polygon fill="black" stroke="black"
                     points="104.5,-118.104 101,-108.104 97.5001,-118.104 104.5,-118.104"></polygon>
        </g>
        <!-- li: Item 1 -->
        <g id="node7" class="node">
            <title>li: Item 1</title>
            <ellipse fill="none" stroke="black" cx="46" cy="-18" rx="46.163" ry="18"></ellipse>
            <text text-anchor="middle" x="46" y="-13.8" font-family="Times,serif" font-size="14.00">li: Item 1</text>
        </g>
        <!-- ul&#45;&gt;li: Item 1 -->
        <g id="edge6" class="edge">
            <title>ul-&gt;li: Item 1</title>
            <path fill="none" stroke="black"
                  d="M89.0658,-73.811C82.1547,-65.0151 73.2879,-53.73 65.398,-43.6884"></path>
            <polygon fill="black" stroke="black"
                     points="67.9951,-41.3287 59.0647,-35.6278 62.4909,-45.6534 67.9951,-41.3287"></polygon>
        </g>
        <!-- li: Item 2 -->
        <g id="node9" class="node">
            <title>li: Item 2</title>
            <ellipse fill="none" stroke="black" cx="157" cy="-18" rx="46.163" ry="18"></ellipse>
            <text text-anchor="middle" x="157" y="-13.8" font-family="Times,serif" font-size="14.00">li: Item 2</text>
        </g>
        <!-- ul&#45;&gt;li: Item 2 -->
        <g id="edge8" class="edge">
            <title>ul-&gt;li: Item 2</title>
            <path fill="none" stroke="black"
                  d="M113.151,-73.811C120.188,-65.0151 129.216,-53.73 137.249,-43.6884"></path>
            <polygon fill="black" stroke="black"
                     points="140.184,-45.623 143.698,-35.6278 134.718,-41.2501 140.184,-45.623"></polygon>
        </g>
    </g>
</svg>
